<?xml version="1.0" encoding="UTF-8"?>
<svg version="1.1" xmlns="http://www.w3.org/2000/svg" width="364" height="280">
<path d="M0 0 C0.71559082 0.11746582 1.43118164 0.23493164 2.16845703 0.35595703 C6.10261075 1.09520406 8.86061057 1.88889312 11.75 4.6875 C12.20410156 6.95581055 12.20410156 6.95581055 12.140625 9.57421875 C12.12128906 10.9809082 12.12128906 10.9809082 12.1015625 12.41601562 C12.05128906 13.88071289 12.05128906 13.88071289 12 15.375 C11.98195313 16.36306641 11.96390625 17.35113281 11.9453125 18.36914062 C11.89815447 20.80956842 11.83236042 23.24804769 11.75 25.6875 C2.44576439 24.83837558 2.44576439 24.83837558 -0.75390625 24.14453125 C-19.58251646 20.69703924 -36.5655603 25.3752157 -52.25 35.6875 C-55.7416235 38.19516393 -59.0279934 40.84352667 -62.25 43.6875 C-62.86101562 44.20441406 -63.47203125 44.72132813 -64.1015625 45.25390625 C-78.66072771 58.51670744 -86.15532294 79.39758629 -87.24121094 98.61962891 C-87.72042819 114.11309135 -81.5240458 128.65517404 -71.5390625 140.375 C-58.20963717 153.84090409 -40.68701752 160.63749662 -21.875 161 C-5.80787182 161 9.63145854 155.52526735 22.52734375 145.93359375 C25.75 143.6875 25.75 143.6875 28.75 143.6875 C28.92456339 147.7494557 29.0309442 151.81044587 29.125 155.875 C29.17527344 157.02548828 29.22554688 158.17597656 29.27734375 159.36132812 C29.42150086 167.65036222 29.42150086 167.65036222 27.57885742 170.49633789 C26.06640625 171.796875 26.06640625 171.796875 22.75 173.6875 C21.86441406 174.23535156 20.97882813 174.78320312 20.06640625 175.34765625 C-2.41509655 186.79568392 -31.1200391 189.15338515 -55.24414062 181.40771484 C-76.75925731 173.68259383 -93.80800042 159.00456279 -103.9375 138.5 C-114.92238993 112.49272749 -111.84344309 84.77544948 -101.53686523 59.16967773 C-100.78324454 57.33869354 -100.01797171 55.51251143 -99.25 53.6875 C-108.97333591 61.13732104 -117.20269034 69.16909249 -124.859375 78.7265625 C-127.47785304 81.96971014 -130.1689639 85.14254564 -132.875 88.3125 C-136.53700972 92.61580066 -140.08646917 96.98275889 -143.52734375 101.46484375 C-147.00485847 105.95170515 -150.62288228 110.32131441 -154.25 114.6875 C-154.6840918 115.21472656 -155.11818359 115.74195313 -155.56542969 116.28515625 C-166.83514406 129.93465998 -179.06709385 143.02517339 -193.25 153.6875 C-194.02561279 154.27772949 -194.02561279 154.27772949 -194.81689453 154.87988281 C-221.05665294 174.73574246 -253.65578928 189.56167136 -287.25 186.6875 C-289.6368449 186.13146043 -291.91341777 185.43940018 -294.25 184.6875 C-295.20619733 180.68954108 -295.3539592 176.97946078 -295.3125 172.875 C-295.30347656 171.71355469 -295.29445313 170.55210937 -295.28515625 169.35546875 C-295.27355469 168.47503906 -295.26195312 167.59460938 -295.25 166.6875 C-294.57235596 166.62804199 -293.89471191 166.56858398 -293.1965332 166.50732422 C-259.33900293 163.40730922 -229.00659645 153.61003729 -203.25 130.6875 C-202.49460937 130.04039062 -201.73921875 129.39328125 -200.9609375 128.7265625 C-189.6715605 118.87195582 -178.67463171 108.22489322 -169.41796875 96.42578125 C-166.78441105 93.0994318 -164.02460607 89.89627215 -161.25 86.6875 C-157.69471172 82.56349915 -154.18205154 78.41538958 -150.75 74.1875 C-137.54592395 57.99113333 -124.09460701 43.17275839 -107.25 30.6875 C-106.41082031 30.05328125 -105.57164062 29.4190625 -104.70703125 28.765625 C-75.46577166 7.41019924 -36.26049936 -6.02919067 0 0 Z " fill="#21A8A0" transform="translate(305.25,86.3125)"/>
<path d="M0 0 C7.25757621 6.37710769 12.16198251 14.54015973 14.25390625 23.98046875 C15.0832667 37.69890629 14.44134848 48.95899491 5.23046875 59.9140625 C-0.87457458 66.2966078 -7.34699973 70.28231419 -15.74609375 72.98046875 C-16.34550781 73.17382812 -16.94492188 73.3671875 -17.5625 73.56640625 C-30.36093585 75.99330106 -42.54049508 73.61571203 -53.4296875 66.62890625 C-62.74227394 60.00173681 -68.53413102 50.37595502 -70.5 39.046875 C-71.90035844 27.28830972 -68.80359938 16.47602178 -61.74609375 6.98046875 C-46.27454568 -12.019678 -19.43269773 -14.62910953 0 0 Z " fill="#F26E62" transform="translate(203.74609375,9.01953125)"/>
</svg>
